<svg display="block" role="presentation" viewBox="0 0 126 32" xmlns="http://www.w3.org/2000/svg"><defs ><linearGradient id="VDmDmnQlp-3724136780-linear-gradient" x1="0" x2="1" y1="0.4975124378109453" y2="0.5024875621890547"><stop offset="0" stop-color="rgb(64, 72, 194)"/><stop offset="1" stop-color="rgb(39, 116, 227)"/></linearGradient><linearGradient id="aeNeKvNOc-3724136780-linear-gradient" x1="0" x2="1" y1="0.4975124378109453" y2="0.5024875621890547"><stop offset="0" stop-color="rgb(64, 72, 194)"/><stop offset="1" stop-color="rgb(39, 116, 227)"/></linearGradient><linearGradient id="K7GqY94vW-3724136780-linear-gradient" x1="0" x2="1" y1="0.4975124378109453" y2="0.5024875621890547"><stop offset="0" stop-color="rgb(64, 72, 194)"/><stop offset="1" stop-color="rgb(39, 116, 227)"/></linearGradient><linearGradient id="uawgjJSgJ-3724136780-linear-gradient" x1="0" x2="1" y1="0.4975124378109453" y2="0.5024875621890547"><stop offset="0" stop-color="rgb(64, 72, 194)"/><stop offset="1" stop-color="rgb(39, 116, 227)"/></linearGradient></defs><g d="M 41.525 8.59 L 43.53 8.59 L 48.945 20.984 L 46.66 20.984 L 45.412 18.013 L 39.592 18.013 L 38.326 20.984 L 36.111 20.984 L 41.526 8.59 Z M 44.619 16.097 L 42.492 11.174 L 40.382 16.097 Z M 54.166 14.813 L 56.328 11.702 L 58.597 11.702 L 55.326 16.238 L 58.737 20.985 L 56.416 20.985 L 54.131 17.68 L 51.863 20.985 L 49.595 20.985 L 52.988 16.255 L 49.717 11.702 L 52.038 11.702 L 54.165 14.813 Z M 59.07 16.378 L 59.07 16.342 C 59.07 13.688 60.951 11.507 63.606 11.507 C 66.559 11.507 68.054 13.828 68.054 16.501 C 68.054 16.694 68.036 16.887 68.018 17.099 L 61.196 17.099 C 61.425 18.611 62.497 19.455 63.869 19.455 C 64.907 19.455 65.645 19.068 66.383 18.347 L 67.632 19.455 C 66.753 20.51 65.539 21.195 63.834 21.195 C 61.144 21.195 59.069 19.244 59.069 16.378 Z M 65.945 15.693 C 65.804 14.322 64.995 13.249 63.588 13.249 C 62.288 13.249 61.373 14.251 61.18 15.693 Z M 73.033 14.867 L 73.033 14.831 C 73.033 11.386 75.67 8.467 79.38 8.467 C 81.524 8.467 82.843 9.065 84.109 10.137 L 82.738 11.772 C 81.788 10.981 80.857 10.471 79.293 10.471 C 77.024 10.471 75.301 12.44 75.301 14.797 L 75.301 14.832 C 75.301 17.363 76.972 19.228 79.486 19.228 C 80.647 19.228 81.701 18.858 82.457 18.295 L 82.457 16.01 L 79.31 16.01 L 79.31 14.112 L 84.55 14.112 L 84.55 19.281 C 83.337 20.318 81.596 21.197 79.416 21.197 C 75.565 21.197 73.034 18.455 73.034 14.868 Z M 86.817 8.151 L 88.962 8.151 L 88.962 20.985 L 86.817 20.985 Z M 90.825 16.396 L 90.825 16.36 C 90.825 13.705 92.935 11.508 95.783 11.508 C 98.63 11.508 100.723 13.671 100.723 16.326 L 100.723 16.361 C 100.723 18.998 98.613 21.196 95.747 21.196 C 92.882 21.196 90.824 19.034 90.824 16.397 Z M 98.596 16.396 L 98.596 16.36 C 98.596 14.725 97.418 13.371 95.747 13.371 C 94.077 13.371 92.952 14.708 92.952 16.325 L 92.952 16.36 C 92.952 17.977 94.13 19.331 95.783 19.331 C 97.435 19.331 98.596 17.995 98.596 16.395 Z M 104.608 19.543 L 104.608 20.985 L 102.463 20.985 L 102.463 8.151 L 104.608 8.151 L 104.608 13.25 C 105.294 12.283 106.261 11.509 107.773 11.509 C 109.953 11.509 112.08 13.232 112.08 16.327 L 112.08 16.362 C 112.08 19.439 109.97 21.18 107.773 21.18 C 106.226 21.18 105.259 20.406 104.608 19.545 Z M 109.918 16.361 L 109.918 16.326 C 109.918 14.533 108.687 13.355 107.263 13.355 C 105.839 13.355 104.556 14.55 104.556 16.326 L 104.556 16.361 C 104.556 18.137 105.822 19.332 107.263 19.332 C 108.704 19.332 109.918 18.19 109.918 16.361 Z M 113.241 18.312 L 113.241 18.277 C 113.241 16.272 114.823 15.288 117.092 15.288 C 118.128 15.288 118.868 15.446 119.588 15.674 L 119.588 15.446 C 119.588 14.128 118.78 13.424 117.285 13.424 C 116.248 13.424 115.475 13.652 114.63 14.004 L 114.05 12.334 C 115.087 11.877 116.089 11.577 117.567 11.577 C 118.956 11.577 119.993 11.947 120.644 12.614 C 121.33 13.282 121.646 14.267 121.646 15.48 L 121.646 20.983 L 119.571 20.983 L 119.571 19.823 C 118.939 20.579 117.971 21.177 116.547 21.177 C 114.806 21.177 113.242 20.175 113.242 18.311 Z M 119.623 17.644 L 119.623 17.012 C 119.078 16.801 118.357 16.642 117.514 16.642 C 116.142 16.642 115.333 17.222 115.333 18.189 L 115.333 18.224 C 115.333 19.121 116.124 19.631 117.144 19.631 C 118.55 19.631 119.623 18.822 119.623 17.644 Z M 123.895 8.151 L 126.04 8.151 L 126.04 20.985 L 123.895 20.985 Z M 2.982 21.644 C 2.377 20.129 2.044 18.476 2.044 16.744 C 2.044 10.632 6.192 5.49 11.829 3.983 L 12.953 1.663 C 5.618 2.775 0 9.103 0 16.744 C 0 19.306 0.633 21.721 1.75 23.84 Z M 28.466 16.744 C 28.466 18.441 28.146 20.065 27.563 21.556 L 28.801 23.764 C 29.893 21.663 30.508 19.275 30.508 16.744 C 30.508 8.987 24.717 2.581 17.222 1.615 L 18.178 3.856 C 24.067 5.187 28.466 10.453 28.466 16.744 Z M 15.255 29.956 C 12.568 29.956 10.068 29.154 7.983 27.775 L 7.06 29.613 C 9.427 31.125 12.239 32 15.255 32 C 18.271 32 21.133 31.109 23.513 29.574 L 22.59 27.736 C 20.492 29.138 17.97 29.957 15.255 29.957 Z M 20.188 14.545 L 18.022 10.3 C 18.182 10.118 18.271 9.884 18.27 9.641 C 18.27 9.087 17.821 8.639 17.268 8.639 C 16.715 8.639 16.266 9.088 16.266 9.641 C 16.266 10.194 16.715 10.644 17.268 10.644 C 17.299 10.644 17.329 10.642 17.36 10.639 L 19.648 15.124 L 21.507 15.917 L 19.702 18.578 C 19.632 18.562 19.558 18.554 19.483 18.554 C 18.929 18.554 18.481 19.003 18.481 19.556 C 18.481 20.109 18.93 20.558 19.483 20.558 C 19.902 20.558 20.261 20.301 20.41 19.936 L 21.988 19.936 L 24.211 24.168 C 24.059 24.348 23.975 24.577 23.975 24.813 C 23.975 25.367 24.424 25.815 24.977 25.815 C 25.178 25.815 25.364 25.756 25.522 25.654 L 27.846 27.39 L 24.196 27.39 L 21.016 21.352 L 10.765 21.352 L 12.918 19.927 L 14.963 19.927 C 15.111 20.296 15.471 20.557 15.893 20.557 C 16.447 20.557 16.896 20.108 16.896 19.555 C 16.896 19.002 16.446 18.553 15.893 18.553 C 15.471 18.553 15.111 18.814 14.963 19.184 L 12.695 19.184 L 9.331 21.409 L 6.352 27.39 L 2.449 27.39 L 5.094 25.634 C 5.257 25.748 5.455 25.815 5.669 25.815 C 6.223 25.815 6.671 25.366 6.671 24.813 C 6.671 24.512 6.537 24.241 6.327 24.058 L 6.684 22.906 L 8.418 19.549 L 12.087 17.72 L 12.087 17.797 L 19.238 17.792 L 15.527 10.757 L 15.598 2.274 L 20.748 12.229 C 20.578 12.413 20.484 12.655 20.484 12.905 C 20.484 13.459 20.933 13.908 21.486 13.908 C 22.04 13.908 22.489 13.458 22.489 12.905 C 22.489 12.352 22.04 11.903 21.486 11.903 C 21.464 11.903 21.442 11.905 21.419 11.907 L 15.259 0 L 7.197 14.995 C 7.16 14.991 7.122 14.988 7.084 14.988 C 6.53 14.988 6.082 15.438 6.082 15.991 C 6.082 16.544 6.531 16.993 7.084 16.993 C 7.637 16.993 8.086 16.544 8.086 15.991 C 8.086 15.745 7.998 15.522 7.852 15.348 L 12.298 7.078 L 14.728 10.871 L 11.652 17.105 L 8.997 18.429 L 12.491 11.664 C 12.51 11.665 12.529 11.666 12.548 11.666 C 13.102 11.666 13.55 11.217 13.55 10.664 C 13.55 10.111 13.101 9.662 12.548 9.662 C 11.995 9.662 11.546 10.111 11.546 10.664 C 11.546 10.929 11.649 11.169 11.816 11.347 L 7.868 18.991 L 6.452 19.696 L 6.242 17.207 L 0.602 28.133 L 6.813 28.133 L 9.82 22.095 L 20.568 22.095 L 23.747 28.133 L 29.578 28.133 L 23.582 15.991 Z M 12.701 6.328 L 14.853 2.325 L 14.793 9.593 Z M 15.166 11.665 L 18.005 17.049 L 12.509 17.053 L 15.166 11.666 Z M 7.291 20.11 L 6.601 21.446 L 6.521 20.495 L 7.291 20.111 Z M 5.728 19.627 L 5.728 20.146 L 5.308 20.355 Z M 4.989 21.258 L 5.804 20.852 L 5.962 22.724 L 5.623 23.814 C 5.091 23.837 4.666 24.275 4.666 24.814 C 4.666 24.882 4.672 24.948 4.685 25.013 L 2.197 26.664 L 4.988 21.259 Z M 25.951 25.046 C 25.969 24.971 25.979 24.894 25.979 24.813 C 25.979 24.259 25.53 23.811 24.977 23.811 C 24.94 23.811 24.904 23.813 24.867 23.818 L 22.436 19.192 L 20.415 19.192 C 20.389 19.124 20.355 19.059 20.315 18.998 L 22.204 16.213 L 23.036 16.568 L 27.966 26.552 L 25.95 25.047 Z M 15.894 19 C 15.588 19 15.34 19.248 15.34 19.554 C 15.34 19.86 15.588 20.108 15.894 20.108 C 16.2 20.108 16.448 19.86 16.448 19.554 C 16.448 19.248 16.2 19 15.894 19 Z M 18.929 19.554 C 18.929 19.248 19.177 19 19.483 19 C 19.789 19 20.037 19.248 20.037 19.554 C 20.037 19.86 19.789 20.108 19.483 20.108 C 19.177 20.108 18.929 19.86 18.929 19.554 Z M 16.714 9.64 C 16.714 9.334 16.962 9.086 17.268 9.086 C 17.574 9.086 17.822 9.334 17.822 9.64 C 17.822 9.946 17.574 10.194 17.268 10.194 C 16.962 10.194 16.714 9.946 16.714 9.64 Z M 21.487 12.351 C 21.181 12.351 20.933 12.599 20.933 12.905 C 20.933 13.211 21.181 13.459 21.487 13.459 C 21.793 13.459 22.041 13.211 22.041 12.905 C 22.041 12.599 21.793 12.351 21.487 12.351 Z M 12.549 10.11 C 12.243 10.11 11.995 10.358 11.995 10.664 C 11.995 10.97 12.243 11.218 12.549 11.218 C 12.855 11.218 13.103 10.97 13.103 10.664 C 13.103 10.358 12.855 10.11 12.549 10.11 Z M 7.085 15.437 C 6.779 15.437 6.531 15.685 6.531 15.991 C 6.531 16.297 6.779 16.545 7.085 16.545 C 7.391 16.545 7.639 16.297 7.639 15.991 C 7.639 15.685 7.391 15.437 7.085 15.437 Z M 5.115 24.812 C 5.115 24.506 5.363 24.258 5.669 24.258 C 5.975 24.258 6.223 24.506 6.223 24.812 C 6.223 25.118 5.975 25.366 5.669 25.366 C 5.363 25.366 5.115 25.118 5.115 24.812 Z M 24.977 24.258 C 24.671 24.258 24.423 24.506 24.423 24.812 C 24.423 25.118 24.671 25.366 24.977 25.366 C 25.283 25.366 25.531 25.118 25.531 24.812 C 25.531 24.506 25.283 24.258 24.977 24.258 Z" fill="transparent" height="31.999999523885663px" id="fAn3izH_L" width="126.0395378771882px"><path d="M 5.414 0.439 L 7.419 0.439 L 12.834 12.833 L 10.549 12.833 L 9.301 9.862 L 3.481 9.862 L 2.215 12.833 L 0 12.833 L 5.415 0.439 Z M 8.508 7.947 L 6.381 3.024 L 4.271 7.947 Z M 18.055 6.663 L 20.218 3.551 L 22.486 3.551 L 19.215 8.087 L 22.626 12.834 L 20.306 12.834 L 18.02 9.529 L 15.752 12.834 L 13.484 12.834 L 16.877 8.105 L 13.606 3.551 L 15.927 3.551 L 18.054 6.663 Z M 22.959 8.227 L 22.959 8.192 C 22.959 5.537 24.84 3.357 27.495 3.357 C 30.448 3.357 31.943 5.677 31.943 8.35 C 31.943 8.544 31.925 8.736 31.907 8.948 L 25.086 8.948 C 25.314 10.46 26.386 11.304 27.758 11.304 C 28.796 11.304 29.534 10.918 30.273 10.196 L 31.521 11.304 C 30.642 12.359 29.428 13.045 27.723 13.045 C 25.033 13.045 22.958 11.094 22.958 8.227 Z M 29.834 7.542 C 29.693 6.171 28.884 5.098 27.477 5.098 C 26.177 5.098 25.262 6.1 25.069 7.542 Z M 36.922 6.716 L 36.922 6.681 C 36.922 3.235 39.559 0.316 43.269 0.316 C 45.414 0.316 46.732 0.914 47.998 1.987 L 46.627 3.621 C 45.677 2.831 44.746 2.321 43.182 2.321 C 40.913 2.321 39.191 4.29 39.191 6.646 L 39.191 6.681 C 39.191 9.213 40.861 11.077 43.375 11.077 C 44.536 11.077 45.59 10.707 46.346 10.145 L 46.346 7.86 L 43.199 7.86 L 43.199 5.961 L 48.439 5.961 L 48.439 11.13 C 47.226 12.167 45.486 13.047 43.305 13.047 C 39.454 13.047 36.923 10.304 36.923 6.717 Z M 50.706 0 L 52.851 0 L 52.851 12.834 L 50.706 12.834 Z M 54.714 8.245 L 54.714 8.21 C 54.714 5.555 56.824 3.358 59.672 3.358 C 62.52 3.358 64.612 5.52 64.612 8.175 L 64.612 8.211 C 64.612 10.848 62.502 13.046 59.636 13.046 C 56.771 13.046 54.713 10.883 54.713 8.246 Z M 62.485 8.245 L 62.485 8.21 C 62.485 6.575 61.307 5.221 59.636 5.221 C 57.966 5.221 56.841 6.557 56.841 8.174 L 56.841 8.21 C 56.841 9.827 58.019 11.181 59.672 11.181 C 61.325 11.181 62.485 9.844 62.485 8.244 Z M 68.497 11.392 L 68.497 12.834 L 66.353 12.834 L 66.353 0 L 68.497 0 L 68.497 5.099 C 69.183 4.132 70.15 3.359 71.662 3.359 C 73.843 3.359 75.97 5.081 75.97 8.176 L 75.97 8.211 C 75.97 11.288 73.859 13.029 71.662 13.029 C 70.115 13.029 69.148 12.255 68.497 11.394 Z M 73.807 8.211 L 73.807 8.175 C 73.807 6.382 72.576 5.204 71.152 5.204 C 69.728 5.204 68.445 6.4 68.445 8.175 L 68.445 8.211 C 68.445 9.987 69.711 11.182 71.152 11.182 C 72.593 11.182 73.807 10.039 73.807 8.211 Z M 77.13 10.162 L 77.13 10.126 C 77.13 8.122 78.712 7.137 80.981 7.137 C 82.018 7.137 82.757 7.295 83.477 7.524 L 83.477 7.295 C 83.477 5.977 82.669 5.273 81.174 5.273 C 80.138 5.273 79.364 5.501 78.52 5.853 L 77.939 4.183 C 78.976 3.726 79.978 3.427 81.456 3.427 C 82.845 3.427 83.883 3.796 84.533 4.464 C 85.219 5.132 85.535 6.116 85.535 7.329 L 85.535 12.832 L 83.461 12.832 L 83.461 11.672 C 82.828 12.428 81.86 13.026 80.436 13.026 C 78.696 13.026 77.131 12.024 77.131 10.161 Z M 83.512 9.494 L 83.512 8.861 C 82.967 8.65 82.246 8.491 81.403 8.491 C 80.031 8.491 79.222 9.071 79.222 10.038 L 79.222 10.074 C 79.222 10.97 80.013 11.48 81.033 11.48 C 82.44 11.48 83.512 10.672 83.512 9.494 Z M 87.784 0 L 89.929 0 L 89.929 12.834 L 87.784 12.834 Z" fill="rgb(255, 255, 255)" height="13.046665903642179px" id="P7yDZK3WX" transform="translate(36.111 8.151)" width="89.9286637011628px"/><path d="M 2.982 19.981 C 2.377 18.466 2.044 16.813 2.044 15.081 C 2.044 8.969 6.192 3.827 11.829 2.32 L 12.953 0 C 5.618 1.112 0 7.44 0 15.081 C 0 17.643 0.633 20.058 1.75 22.177 Z" fill="url(#VDmDmnQlp-3724136780-linear-gradient)" height="22.177094863743605px" id="VDmDmnQlp" transform="translate(0 1.663)" width="12.953092835306961px"/><path d="M 11.243 15.129 C 11.243 16.826 10.923 18.45 10.34 19.941 L 11.578 22.149 C 12.67 20.048 13.286 17.66 13.286 15.129 C 13.286 7.372 7.495 0.966 0 0 L 0.955 2.241 C 6.845 3.572 11.243 8.838 11.243 15.129 Z" fill="url(#aeNeKvNOc-3724136780-linear-gradient)" height="22.14902140723018px" id="aeNeKvNOc" transform="translate(17.222 1.615)" width="13.286231185933275px"/><path d="M 8.196 2.221 C 5.508 2.221 3.009 1.419 0.924 0.039 L 0 1.877 C 2.368 3.389 5.18 4.264 8.196 4.264 C 11.212 4.264 14.073 3.373 16.454 1.838 L 15.53 0 C 13.432 1.403 10.91 2.222 8.196 2.222 Z" fill="url(#K7GqY94vW-3724136780-linear-gradient)" height="4.264358044393475px" id="K7GqY94vW" transform="translate(7.06 27.736)" width="16.453852862534404px"/><path d="M 19.586 14.545 L 17.421 10.3 C 17.581 10.118 17.669 9.884 17.668 9.641 C 17.668 9.087 17.219 8.639 16.666 8.639 C 16.113 8.639 15.664 9.088 15.664 9.641 C 15.664 10.194 16.113 10.644 16.666 10.644 C 16.697 10.644 16.727 10.642 16.758 10.639 L 19.046 15.124 L 20.905 15.917 L 19.1 18.578 C 19.03 18.562 18.956 18.554 18.881 18.554 C 18.327 18.554 17.879 19.003 17.879 19.556 C 17.879 20.109 18.328 20.558 18.881 20.558 C 19.301 20.558 19.659 20.301 19.809 19.936 L 21.386 19.936 L 23.61 24.168 C 23.457 24.348 23.373 24.577 23.373 24.813 C 23.373 25.367 23.822 25.815 24.375 25.815 C 24.576 25.815 24.763 25.756 24.92 25.654 L 27.244 27.39 L 23.594 27.39 L 20.414 21.352 L 10.164 21.352 L 12.317 19.927 L 14.361 19.927 C 14.509 20.296 14.87 20.557 15.292 20.557 C 15.846 20.557 16.294 20.108 16.294 19.555 C 16.294 19.002 15.845 18.553 15.292 18.553 C 14.87 18.553 14.509 18.814 14.361 19.184 L 12.093 19.184 L 8.729 21.409 L 5.75 27.39 L 1.847 27.39 L 4.493 25.634 C 4.656 25.748 4.853 25.815 5.067 25.815 C 5.621 25.815 6.069 25.366 6.069 24.813 C 6.069 24.512 5.936 24.241 5.725 24.058 L 6.083 22.906 L 7.817 19.549 L 11.486 17.72 L 11.486 17.797 L 18.636 17.792 L 14.926 10.757 L 14.996 2.274 L 20.146 12.229 C 19.977 12.413 19.882 12.655 19.883 12.905 C 19.883 13.459 20.332 13.908 20.885 13.908 C 21.438 13.908 21.887 13.458 21.887 12.905 C 21.887 12.352 21.438 11.903 20.885 11.903 C 20.862 11.903 20.84 11.905 20.817 11.907 L 14.657 0 L 6.595 14.995 C 6.558 14.991 6.521 14.988 6.482 14.988 C 5.928 14.988 5.48 15.438 5.48 15.991 C 5.48 16.544 5.929 16.993 6.482 16.993 C 7.035 16.993 7.484 16.544 7.484 15.991 C 7.484 15.745 7.396 15.522 7.25 15.348 L 11.696 7.078 L 14.127 10.871 L 11.051 17.105 L 8.395 18.429 L 11.889 11.664 C 11.908 11.665 11.927 11.666 11.946 11.666 C 12.5 11.666 12.948 11.217 12.948 10.664 C 12.948 10.111 12.499 9.662 11.946 9.662 C 11.393 9.662 10.944 10.111 10.944 10.664 C 10.944 10.929 11.047 11.169 11.214 11.347 L 7.266 18.991 L 5.851 19.696 L 5.64 17.207 L 0 28.133 L 6.212 28.133 L 9.218 22.095 L 19.966 22.095 L 23.146 28.133 L 28.976 28.133 L 22.98 15.991 Z M 12.1 6.328 L 14.251 2.325 L 14.191 9.593 Z M 14.565 11.665 L 17.404 17.049 L 11.907 17.053 L 14.565 11.666 Z M 6.689 20.11 L 5.999 21.446 L 5.919 20.495 L 6.689 20.111 Z M 5.126 19.627 L 5.126 20.146 L 4.706 20.355 Z M 4.387 21.258 L 5.202 20.852 L 5.36 22.724 L 5.021 23.814 C 4.489 23.837 4.064 24.275 4.064 24.814 C 4.064 24.882 4.071 24.948 4.084 25.013 L 1.596 26.664 L 4.386 21.259 Z M 25.349 25.046 C 25.367 24.971 25.377 24.894 25.377 24.813 C 25.377 24.259 24.928 23.811 24.375 23.811 C 24.339 23.811 24.302 23.813 24.266 23.818 L 21.835 19.192 L 19.813 19.192 C 19.787 19.124 19.753 19.059 19.713 18.998 L 21.603 16.213 L 22.434 16.568 L 27.364 26.552 L 25.348 25.047 Z" fill="url(#uawgjJSgJ-3724136780-linear-gradient)" height="28.13334655401445px" id="uawgjJSgJ" transform="translate(0.602 0)" width="28.976486077512057px"/><path d="M 0.554 0 C 0.248 0 0 0.248 0 0.554 C 0 0.86 0.248 1.108 0.554 1.108 C 0.86 1.108 1.108 0.86 1.108 0.554 C 1.108 0.248 0.86 0 0.554 0 Z" fill="rgb(112, 219, 249)" height="1.107965750397625px" id="nlpBoxhUr" transform="translate(15.34 19)" width="1.107965750397625px"/><path d="M 0 0.554 C 0 0.248 0.248 0 0.554 0 C 0.86 0 1.108 0.248 1.108 0.554 C 1.108 0.86 0.86 1.108 0.554 1.108 C 0.248 1.108 0 0.86 0 0.554 Z" fill="rgb(112, 219, 249)" height="1.107965750397625px" id="IgU1Uqy51" transform="translate(18.929 19)" width="1.107965750397625px"/><path d="M 0 0.554 C 0 0.248 0.248 0 0.554 0 C 0.86 0 1.108 0.248 1.108 0.554 C 1.108 0.86 0.86 1.108 0.554 1.108 C 0.248 1.108 0 0.86 0 0.554 Z" fill="rgb(112, 219, 249)" height="1.1079657503975113px" id="y2Yldnsp_" transform="translate(16.714 9.086)" width="1.107965750397625px"/><path d="M 14.957 2.241 C 14.651 2.241 14.403 2.489 14.403 2.795 C 14.403 3.101 14.651 3.349 14.957 3.349 C 15.263 3.349 15.511 3.101 15.511 2.795 C 15.511 2.489 15.263 2.241 14.957 2.241 Z M 6.018 0 C 5.712 0 5.464 0.248 5.464 0.554 C 5.464 0.86 5.712 1.108 6.018 1.108 C 6.324 1.108 6.572 0.86 6.572 0.554 C 6.572 0.248 6.324 0 6.018 0 Z M 0.554 5.326 C 0.248 5.326 0 5.574 0 5.88 C 0 6.186 0.248 6.434 0.554 6.434 C 0.86 6.434 1.108 6.186 1.108 5.88 C 1.108 5.574 0.86 5.326 0.554 5.326 Z" fill="rgb(112, 219, 249)" height="6.434438032807293px" id="n5c8DZvnx" transform="translate(6.531 10.11)" width="15.51058606594927px"/><path d="M 0 0.554 C 0 0.248 0.248 0 0.554 0 C 0.86 0 1.108 0.248 1.108 0.554 C 1.108 0.86 0.86 1.108 0.554 1.108 C 0.248 1.108 0 0.86 0 0.554 Z" fill="rgb(112, 219, 249)" height="1.107965750397625px" id="rK4JNnqG9" transform="translate(5.115 24.258)" width="1.107965750397625px"/><path d="M 0.554 0 C 0.248 0 0 0.248 0 0.554 C 0 0.86 0.248 1.108 0.554 1.108 C 0.86 1.108 1.108 0.86 1.108 0.554 C 1.108 0.248 0.86 0 0.554 0 Z" fill="rgb(112, 219, 249)" height="1.107965750397625px" id="odOm004jY" transform="translate(24.423 24.258)" width="1.107965750397625px"/></g></svg>